<mxfile host="app.diagrams.net" agent="Mozilla/5.0 (Windows NT 10.0; Win64; x64) AppleWebKit/537.36 (KHTML, like Gecko) Chrome/132.0.0.0 Safari/537.36 OPR/117.0.0.0" version="26.1.1">
  <diagram name="PÃ¡gina-1" id="BvhR5NLxnVFiCseQWA7m">
    <mxGraphModel dx="1152" dy="731" grid="1" gridSize="10" guides="1" tooltips="1" connect="1" arrows="1" fold="1" page="1" pageScale="1" pageWidth="6000" pageHeight="5300" math="0" shadow="0">
      <root>
        <mxCell id="0" />
        <mxCell id="1" parent="0" />
        <mxCell id="2INb_UAs3qM7dpsiriRV-4" value="eco_reg_reg" style="ellipse;whiteSpace=wrap;html=1;" parent="1" vertex="1">
          <mxGeometry x="730" y="315" width="120" height="60" as="geometry" />
        </mxCell>
        <mxCell id="2INb_UAs3qM7dpsiriRV-5" value="eco_reg_trazabilidad" style="ellipse;whiteSpace=wrap;html=1;" parent="1" vertex="1">
          <mxGeometry x="730" y="500" width="120" height="60" as="geometry" />
        </mxCell>
        <mxCell id="2INb_UAs3qM7dpsiriRV-6" value="eco_bas_comite" style="ellipse;whiteSpace=wrap;html=1;" parent="1" vertex="1">
          <mxGeometry x="980" y="950" width="120" height="60" as="geometry" />
        </mxCell>
        <mxCell id="2INb_UAs3qM7dpsiriRV-7" value="eco_cerrem_sesion" style="ellipse;whiteSpace=wrap;html=1;" parent="1" vertex="1">
          <mxGeometry x="980" y="670" width="120" height="60" as="geometry" />
        </mxCell>
        <mxCell id="2INb_UAs3qM7dpsiriRV-9" value="eco_cerrem_agenda" style="ellipse;whiteSpace=wrap;html=1;" parent="1" vertex="1">
          <mxGeometry x="980" y="810" width="120" height="60" as="geometry" />
        </mxCell>
        <mxCell id="2INb_UAs3qM7dpsiriRV-10" value="eco_cerrem_reunion" style="ellipse;whiteSpace=wrap;html=1;" parent="1" vertex="1">
          <mxGeometry x="1300" y="670" width="120" height="60" as="geometry" />
        </mxCell>
        <mxCell id="2INb_UAs3qM7dpsiriRV-12" value="eco_cerrem_voto" style="ellipse;whiteSpace=wrap;html=1;" parent="1" vertex="1">
          <mxGeometry x="1520" y="810" width="120" height="60" as="geometry" />
        </mxCell>
        <mxCell id="2INb_UAs3qM7dpsiriRV-13" value="eco_ctar_medida" style="ellipse;whiteSpace=wrap;html=1;" parent="1" vertex="1">
          <mxGeometry x="1680" y="500" width="120" height="60" as="geometry" />
        </mxCell>
        <mxCell id="2INb_UAs3qM7dpsiriRV-14" value="eco_cerrem_ingresomedidas" style="ellipse;whiteSpace=wrap;html=1;" parent="1" vertex="1">
          <mxGeometry x="1375" y="500" width="180" height="60" as="geometry" />
        </mxCell>
        <mxCell id="2INb_UAs3qM7dpsiriRV-15" value="eco_cerrem_devolucionregistro" style="ellipse;whiteSpace=wrap;html=1;" parent="1" vertex="1">
          <mxGeometry x="400" y="500" width="200" height="60" as="geometry" />
        </mxCell>
        <mxCell id="2INb_UAs3qM7dpsiriRV-21" style="rounded=0;orthogonalLoop=1;jettySize=auto;html=1;endArrow=ERoneToMany;endFill=0;startArrow=ERone;startFill=0;" parent="1" source="2INb_UAs3qM7dpsiriRV-4" target="2INb_UAs3qM7dpsiriRV-5" edge="1">
          <mxGeometry relative="1" as="geometry">
            <mxPoint x="820" y="420" as="sourcePoint" />
            <mxPoint x="950" y="420" as="targetPoint" />
          </mxGeometry>
        </mxCell>
        <mxCell id="2INb_UAs3qM7dpsiriRV-22" style="rounded=0;orthogonalLoop=1;jettySize=auto;html=1;endArrow=ERoneToMany;endFill=0;startArrow=ERone;startFill=0;" parent="1" source="2INb_UAs3qM7dpsiriRV-4" target="2INb_UAs3qM7dpsiriRV-45" edge="1">
          <mxGeometry relative="1" as="geometry">
            <mxPoint x="910" y="375" as="sourcePoint" />
            <mxPoint x="1030" y="460" as="targetPoint" />
          </mxGeometry>
        </mxCell>
        <mxCell id="2INb_UAs3qM7dpsiriRV-24" value="eco_sis_ot" style="ellipse;whiteSpace=wrap;html=1;" parent="1" vertex="1">
          <mxGeometry x="730" y="180" width="120" height="60" as="geometry" />
        </mxCell>
        <mxCell id="2INb_UAs3qM7dpsiriRV-25" style="rounded=0;orthogonalLoop=1;jettySize=auto;html=1;endArrow=ERone;endFill=0;startArrow=ERone;startFill=0;" parent="1" source="2INb_UAs3qM7dpsiriRV-24" target="2INb_UAs3qM7dpsiriRV-4" edge="1">
          <mxGeometry relative="1" as="geometry">
            <mxPoint x="530" y="270" as="sourcePoint" />
            <mxPoint x="712" y="405" as="targetPoint" />
          </mxGeometry>
        </mxCell>
        <mxCell id="2INb_UAs3qM7dpsiriRV-26" value="eco_cerrem_complemento" style="ellipse;whiteSpace=wrap;html=1;" parent="1" vertex="1">
          <mxGeometry x="945" y="180" width="190" height="60" as="geometry" />
        </mxCell>
        <mxCell id="2INb_UAs3qM7dpsiriRV-27" style="rounded=0;orthogonalLoop=1;jettySize=auto;html=1;endArrow=ERone;endFill=0;startArrow=ERone;startFill=0;" parent="1" source="2INb_UAs3qM7dpsiriRV-24" target="2INb_UAs3qM7dpsiriRV-26" edge="1">
          <mxGeometry relative="1" as="geometry">
            <mxPoint x="860" y="355" as="sourcePoint" />
            <mxPoint x="990" y="355" as="targetPoint" />
          </mxGeometry>
        </mxCell>
        <mxCell id="2INb_UAs3qM7dpsiriRV-28" style="rounded=0;orthogonalLoop=1;jettySize=auto;html=1;endArrow=ERone;endFill=0;startArrow=ERone;startFill=0;" parent="1" source="2INb_UAs3qM7dpsiriRV-7" target="2INb_UAs3qM7dpsiriRV-10" edge="1">
          <mxGeometry relative="1" as="geometry">
            <mxPoint x="1120" y="460" as="sourcePoint" />
            <mxPoint x="1140" y="665" as="targetPoint" />
          </mxGeometry>
        </mxCell>
        <mxCell id="2INb_UAs3qM7dpsiriRV-29" style="rounded=0;orthogonalLoop=1;jettySize=auto;html=1;endArrow=ERoneToMany;endFill=0;startArrow=ERone;startFill=0;" parent="1" source="2INb_UAs3qM7dpsiriRV-7" target="2INb_UAs3qM7dpsiriRV-9" edge="1">
          <mxGeometry relative="1" as="geometry">
            <mxPoint x="850" y="712.5" as="sourcePoint" />
            <mxPoint x="1032" y="847.5" as="targetPoint" />
          </mxGeometry>
        </mxCell>
        <mxCell id="2INb_UAs3qM7dpsiriRV-30" value="&lt;div&gt;eco_usr_usuario&lt;/div&gt;" style="ellipse;whiteSpace=wrap;html=1;" parent="1" vertex="1">
          <mxGeometry x="1300" y="810" width="120" height="60" as="geometry" />
        </mxCell>
        <mxCell id="2INb_UAs3qM7dpsiriRV-32" style="rounded=0;orthogonalLoop=1;jettySize=auto;html=1;endArrow=ERone;endFill=0;startArrow=ERone;startFill=0;" parent="1" source="2INb_UAs3qM7dpsiriRV-10" target="2INb_UAs3qM7dpsiriRV-30" edge="1">
          <mxGeometry relative="1" as="geometry">
            <mxPoint x="1350" y="770" as="sourcePoint" />
            <mxPoint x="1470" y="770" as="targetPoint" />
          </mxGeometry>
        </mxCell>
        <mxCell id="2INb_UAs3qM7dpsiriRV-35" style="rounded=0;orthogonalLoop=1;jettySize=auto;html=1;endArrow=ERone;endFill=0;startArrow=ERone;startFill=0;" parent="1" source="2INb_UAs3qM7dpsiriRV-30" target="2INb_UAs3qM7dpsiriRV-12" edge="1">
          <mxGeometry relative="1" as="geometry">
            <mxPoint x="1580" y="730" as="sourcePoint" />
            <mxPoint x="1370" y="820" as="targetPoint" />
          </mxGeometry>
        </mxCell>
        <mxCell id="2INb_UAs3qM7dpsiriRV-37" style="rounded=0;orthogonalLoop=1;jettySize=auto;html=1;endArrow=ERone;endFill=0;startArrow=ERone;startFill=0;" parent="1" source="2INb_UAs3qM7dpsiriRV-10" target="2INb_UAs3qM7dpsiriRV-14" edge="1">
          <mxGeometry relative="1" as="geometry">
            <mxPoint x="1360" y="480" as="sourcePoint" />
            <mxPoint x="1450" y="480" as="targetPoint" />
          </mxGeometry>
        </mxCell>
        <mxCell id="2INb_UAs3qM7dpsiriRV-38" style="rounded=0;orthogonalLoop=1;jettySize=auto;html=1;endArrow=ERoneToMany;endFill=0;startArrow=ERone;startFill=0;" parent="1" source="2INb_UAs3qM7dpsiriRV-14" target="2INb_UAs3qM7dpsiriRV-13" edge="1">
          <mxGeometry relative="1" as="geometry">
            <mxPoint x="1585" y="658" as="sourcePoint" />
            <mxPoint x="1711" y="529" as="targetPoint" />
          </mxGeometry>
        </mxCell>
        <mxCell id="2INb_UAs3qM7dpsiriRV-41" value="eco_cerrem_formularioexterno" style="ellipse;whiteSpace=wrap;html=1;" parent="1" vertex="1">
          <mxGeometry x="415" y="315" width="170" height="60" as="geometry" />
        </mxCell>
        <mxCell id="2INb_UAs3qM7dpsiriRV-45" value="eco_cerrem_sesionregistro" style="ellipse;whiteSpace=wrap;html=1;" parent="1" vertex="1">
          <mxGeometry x="950" y="500" width="180" height="60" as="geometry" />
        </mxCell>
        <mxCell id="2INb_UAs3qM7dpsiriRV-46" style="rounded=0;orthogonalLoop=1;jettySize=auto;html=1;endArrow=ERone;endFill=0;startArrow=ERone;startFill=0;" parent="1" source="2INb_UAs3qM7dpsiriRV-45" target="2INb_UAs3qM7dpsiriRV-7" edge="1">
          <mxGeometry relative="1" as="geometry">
            <mxPoint x="1010" y="610" as="sourcePoint" />
            <mxPoint x="1210" y="610" as="targetPoint" />
          </mxGeometry>
        </mxCell>
        <mxCell id="2INb_UAs3qM7dpsiriRV-47" value="eco_sis_datosbasicospersona" style="ellipse;whiteSpace=wrap;html=1;" parent="1" vertex="1">
          <mxGeometry x="100" y="315" width="200" height="60" as="geometry" />
        </mxCell>
        <mxCell id="2INb_UAs3qM7dpsiriRV-49" style="rounded=0;orthogonalLoop=1;jettySize=auto;html=1;endArrow=ERone;endFill=0;startArrow=ERone;startFill=0;" parent="1" source="2INb_UAs3qM7dpsiriRV-41" target="2INb_UAs3qM7dpsiriRV-47" edge="1">
          <mxGeometry relative="1" as="geometry">
            <mxPoint x="390" y="380" as="sourcePoint" />
            <mxPoint x="390" y="455" as="targetPoint" />
          </mxGeometry>
        </mxCell>
        <mxCell id="2INb_UAs3qM7dpsiriRV-51" style="rounded=0;orthogonalLoop=1;jettySize=auto;html=1;endArrow=ERone;endFill=0;startArrow=ERoneToMany;startFill=0;" parent="1" source="2INb_UAs3qM7dpsiriRV-41" target="2INb_UAs3qM7dpsiriRV-4" edge="1">
          <mxGeometry relative="1" as="geometry">
            <mxPoint x="710" y="400" as="sourcePoint" />
            <mxPoint x="700" y="420" as="targetPoint" />
          </mxGeometry>
        </mxCell>
        <mxCell id="2INb_UAs3qM7dpsiriRV-52" style="rounded=0;orthogonalLoop=1;jettySize=auto;html=1;endArrow=ERone;endFill=0;startArrow=ERone;startFill=0;" parent="1" source="2INb_UAs3qM7dpsiriRV-5" target="2INb_UAs3qM7dpsiriRV-15" edge="1">
          <mxGeometry relative="1" as="geometry">
            <mxPoint x="800" y="385" as="sourcePoint" />
            <mxPoint x="800" y="510" as="targetPoint" />
          </mxGeometry>
        </mxCell>
        <mxCell id="jNFqI_rsbBqO8iwg4IDo-1" value="&lt;div&gt;eco_cerrem_sesionrol&lt;/div&gt;" style="ellipse;whiteSpace=wrap;html=1;" vertex="1" parent="1">
          <mxGeometry x="1290" y="930" width="140" height="60" as="geometry" />
        </mxCell>
        <mxCell id="jNFqI_rsbBqO8iwg4IDo-2" style="rounded=0;orthogonalLoop=1;jettySize=auto;html=1;endArrow=ERone;endFill=0;startArrow=ERone;startFill=0;" edge="1" parent="1" source="2INb_UAs3qM7dpsiriRV-30" target="jNFqI_rsbBqO8iwg4IDo-1">
          <mxGeometry relative="1" as="geometry">
            <mxPoint x="1430" y="850" as="sourcePoint" />
            <mxPoint x="1530" y="850" as="targetPoint" />
          </mxGeometry>
        </mxCell>
        <mxCell id="jNFqI_rsbBqO8iwg4IDo-3" style="rounded=0;orthogonalLoop=1;jettySize=auto;html=1;endArrow=ERoneToMany;endFill=0;startArrow=ERone;startFill=0;" edge="1" parent="1" source="2INb_UAs3qM7dpsiriRV-9" target="2INb_UAs3qM7dpsiriRV-6">
          <mxGeometry relative="1" as="geometry">
            <mxPoint x="1120" y="860" as="sourcePoint" />
            <mxPoint x="1120" y="940" as="targetPoint" />
          </mxGeometry>
        </mxCell>
      </root>
    </mxGraphModel>
  </diagram>
</mxfile>
